# xmcd
#
# Track frame offsets: 
#        150
#        14696
#        28093
#        42943
#        64908
#        81671
#        93639
#        105922
#        120155
#        137565
#        152987
#        162540
#        178133
#        189478
#        208506
#        222504
#
# Disc length: 3228 seconds
#
# Revision: 0
# Processed by: cddbd v1.5.2PL0 Copyright (c) Steve Scherf et al.
# Submitted via: ExactAudioCopy v1.3
#
DISCID=e70c9a10
DTITLE=Fiona Boyes - Professin' The Blues
DYEAR=2016
DGENRE=Blues
TTITLE0=Can't Stay Here No More
TTITLE1=Devil You Know
TTITLE2=Lay Down With Dogs
TTITLE3=Angels and Boats
TTITLE4=One Rule For You
TTITLE5=Card Sharp
TTITLE6=Old and Stiff
TTITLE7=Kiss Me Darling
TTITLE8=Love Me All The Way
TTITLE9=Stubborn Old Mule
TTITLE10=Catfish Fiesta
TTITLE11=If I Should Die
TTITLE12=At The Crossroads
TTITLE13=Love Changing Blues
TTITLE14=Baby Please Don't Go
TTITLE15=Face In The Mirror
EXTD=
EXTT0=
EXTT1=
EXTT2=
EXTT3=
EXTT4=
EXTT5=
EXTT6=
EXTT7=
EXTT8=
EXTT9=
EXTT10=
EXTT11=
EXTT12=
EXTT13=
EXTT14=
EXTT15=
PLAYORDER=
